# xmcd
#
# Track frame offsets: 
#        150
#        22240
#        43264
#        66717
#        84625
#        102525
#        128117
#        147890
#        171920
#        182650
#
# Disc length: 2722 seconds
#
# Revision: 0
# Processed by: cddbd v1.5.2PL0 Copyright (c) Steve Scherf et al.
# Submitted via: ExactAudioCopy v1.0b3
#
DISCID=9a0aa00a
DTITLE=Son Tuyen - Linh Xa Nha
DYEAR=1994
DGENRE=
TTITLE0=Linh xa nha
TTITLE1=Tam anh khong hon
TTITLE2=Bai ca nay cho anh
TTITLE3=Chuyen ba mua mua
TTITLE4=Bien tinh
TTITLE5=Son Tuyen, Tuan Vu - Chuyen do khong em
TTITLE6=Neu anh dung hen
TTITLE7=Ky niem nao buon
TTITLE8=Yeu em di vang
TTITLE9=Sau le bong
EXTD=
EXTT0=
EXTT1=
EXTT2=
EXTT3=
EXTT4=
EXTT5=
EXTT6=
EXTT7=
EXTT8=
EXTT9=
PLAYORDER=
